<?xml version="1.0" standalone="no"?>
<!DOCTYPE svg PUBLIC "-//W3C//DTD SVG 20010904//EN"
 "http://www.w3.org/TR/2001/REC-SVG-20010904/DTD/svg10.dtd">
<svg version="1.0" xmlns="http://www.w3.org/2000/svg"
 width="33.000000pt" height="33.000000pt" viewBox="0 0 33.000000 33.000000"
 preserveAspectRatio="xMidYMid meet">

<g transform="translate(0.000000,33.000000) scale(0.100000,-0.100000)"
fill="#000000" stroke="none">
<path d="M67 262 c-47 -47 -67 -75 -67 -93 0 -30 135 -169 165 -169 11 0 52
32 92 72 56 55 73 79 73 100 0 16 -3 28 -8 28 -4 0 -39 -31 -77 -70 -38 -38
-74 -70 -80 -70 -14 0 -115 103 -115 117 0 6 12 21 27 33 l26 21 29 -28 29
-27 46 47 47 46 -29 31 c-48 50 -78 42 -158 -38z"/>
<path d="M230 225 l-64 -65 -27 26 c-29 28 -56 29 -73 2 -9 -15 -2 -27 42 -70
l52 -53 85 85 c47 46 85 90 85 96 0 6 -8 18 -18 27 -17 16 -22 13 -82 -48z"/>
</g>
</svg>
