<?xml version="1.0" standalone="no"?>
<!DOCTYPE svg PUBLIC "-//W3C//DTD SVG 20010904//EN"
 "http://www.w3.org/TR/2001/REC-SVG-20010904/DTD/svg10.dtd">
<svg version="1.0" xmlns="http://www.w3.org/2000/svg"
 width="31.000000pt" height="39.000000pt" viewBox="0 0 31.000000 39.000000"
 preserveAspectRatio="xMidYMid meet">
<g transform="translate(0.000000,39.000000) scale(0.100000,-0.100000)"
fill="#000000" stroke="none">
<path d="M138 378 c23 -23 12 -53 -35 -94 -46 -40 -48 -44 -48 -94 0 -50 2
-54 48 -96 46 -42 77 -55 77 -35 0 6 -4 13 -10 16 -22 13 -8 46 40 93 39 39
50 56 50 81 0 43 -23 85 -63 115 -35 27 -83 38 -59 14z"/>
</g>
</svg>
